 <svg  version="1.0" xmlns="http://www.w3.org/2000/svg"  width="300.000000pt" height="300.000000pt" viewBox="0 0 300.000000 300.000000"  preserveAspectRatio="xMidYMid meet">  <g transform="translate(0.000000,300.000000) scale(0.100000,-0.100000)" fill="#245207" stroke="none"> <path d="M896 2669 c-56 -121 -54 -199 5 -184 76 19 93 77 56 194 l-23 74 -38 -84z m40 -76 c-7 -62 -23 -93 -37 -71 -12 19 -11 30 3 22 7 -5 8 -3 4 5 -11 17 3 83 15 76 5 -4 9 1 9 9 0 9 3 16 6 16 4 0 4 -26 0 -57z"/> <path d="M1213 2705 c-73 -35 -81 -42 -92 -81 l-9 -30 44 6 c53 8 81 31 106 89 10 24 17 44 16 45 -2 1 -31 -12 -65 -29z"/> <path d="M1570 2697 c15 -16 131 -59 138 -52 9 9 -79 56 -114 62 -35 5 -38 4 -24 -10z"/> <path d="M1407 2662 c-27 -16 -36 -32 -18 -32 13 0 57 37 51 43 -3 3 -18 -2 -33 -11z"/> <path d="M1762 2662 c-24 -24 -26 -52 -5 -59 15 -5 35 32 31 60 l-3 22 -23 -23z"/> <path d="M1880 2605 c0 -32 5 -47 18 -53 40 -21 56 17 26 63 -28 43 -44 39 -44 -10z"/> <path d="M1325 2611 c-98 -18 -191 -42 -250 -63 -60 -22 -244 -116 -278 -142 -18 -14 -37 -26 -41 -26 -14 0 -166 -145 -193 -183 -25 -36 -27 -37 -35 -18 -12 34 -21 24 -15 -16 5 -29 0 -47 -23 -89 -33 -56 -35 -64 -20 -64 5 0 21 25 36 56 18 37 38 63 60 76 36 21 47 36 14 18 -27 -14 -25 -4 6 39 44 59 96 100 129 101 24 1 26 3 11 9 -17 7 -13 12 29 44 33 26 59 37 84 38 32 1 33 2 11 8 -24 7 -22 9 27 34 29 15 59 27 68 27 8 0 15 4 15 8 0 4 21 18 46 31 l47 22 23 -22 c20 -19 24 -20 24 -6 0 14 10 17 58 16 41 0 51 -3 37 -9 -20 -9 -20 -9 0 -9 11 0 38 16 60 37 22 20 36 34 31 30 -14 -11 -78 -10 -96 2 -12 8 -8 10 15 11 17 1 40 0 53 -1 12 -1 22 3 22 7 0 12 144 35 198 32 44 -3 54 -10 59 -41 2 -15 -2 -15 -54 3 -31 10 -76 19 -101 19 -38 0 -43 -2 -32 -15 10 -12 9 -15 -6 -15 -14 0 -11 -4 11 -17 19 -11 63 -19 123 -22 85 -6 107 -2 82 14 -6 4 -8 16 -5 26 4 11 1 26 -5 34 -10 13 -7 15 18 15 17 0 36 -6 41 -12 6 -7 23 -28 37 -46 21 -26 29 -30 40 -21 17 14 18 45 2 53 -37 17 69 -11 141 -37 83 -29 83 -30 55 -42 -16 -7 -37 -22 -47 -33 -19 -20 -18 -21 29 -28 45 -6 50 -5 73 23 l26 31 48 -19 c69 -27 244 -145 298 -200 25 -26 62 -71 81 -100 52 -80 169 -305 161 -312 -3 -4 -1 -7 5 -7 6 0 20 -30 32 -66 23 -75 24 -84 10 -84 -5 0 -10 7 -10 15 0 29 -38 55 -80 55 -50 0 -91 -20 -115 -56 l-17 -27 36 6 c19 3 38 1 41 -4 4 -5 14 -9 23 -9 14 0 14 2 -2 13 -16 11 -11 13 33 14 28 0 51 -3 51 -8 0 -5 -9 -9 -19 -9 -11 0 -23 -4 -26 -10 -8 -13 41 -13 67 1 11 6 22 8 25 6 10 -11 21 -77 12 -77 -5 0 -9 4 -9 9 0 11 -47 27 -109 36 l-45 7 33 -41 c39 -49 44 -52 92 -61 29 -5 36 -4 32 7 -3 7 -1 13 4 13 10 0 24 -143 22 -224 l0 -41 -19 40 c-10 22 -15 52 -13 67 9 49 -4 73 -56 101 -27 15 -58 27 -70 27 -21 0 -20 -2 9 -60 21 -41 42 -68 69 -84 67 -42 89 -134 57 -238 -14 -47 -56 -102 -56 -73 0 8 4 15 9 15 31 0 17 63 -26 114 -54 64 -58 62 -61 -26 -2 -83 6 -102 63 -134 17 -9 16 -14 -15 -77 -34 -69 -70 -114 -56 -70 10 33 -19 87 -59 109 -19 10 -36 16 -38 14 -2 -3 -1 -36 2 -74 6 -59 10 -71 34 -88 31 -22 29 -27 -28 -102 -19 -25 -31 -46 -27 -46 9 0 58 50 63 65 2 6 20 32 39 58 33 46 35 47 50 28 25 -33 73 -37 112 -10 18 13 44 29 58 35 24 10 24 11 -24 27 -57 20 -89 21 -117 7 -24 -14 -24 -11 6 41 14 24 25 54 25 66 0 12 12 35 26 52 32 38 50 97 60 191 6 63 10 73 31 81 19 7 63 80 63 105 0 3 -18 -5 -41 -18 -33 -18 -39 -26 -34 -45 6 -26 -10 -32 -19 -7 -3 9 -6 29 -6 45 0 25 7 32 54 54 44 21 58 34 80 76 15 29 24 54 22 57 -3 2 -28 -1 -57 -8 -50 -12 -72 -27 -96 -66 -10 -17 -12 -15 -12 18 -1 20 -5 59 -10 85 -22 113 -23 119 -2 120 58 5 91 59 88 145 -2 43 -4 47 -22 42 -40 -12 -90 -61 -101 -100 l-11 -38 -11 33 c-18 50 -15 68 11 75 29 7 48 42 51 92 1 22 5 45 10 52 17 27 -16 9 -60 -32 -43 -41 -46 -48 -40 -80 4 -20 5 -36 2 -36 -3 0 -26 39 -52 88 -54 99 -130 213 -150 225 -18 10 -18 28 0 21 20 -8 56 44 56 80 0 39 -11 54 -72 100 l-47 35 -7 -57 c-4 -35 -3 -67 4 -86 7 -16 11 -31 9 -32 -1 -1 -20 13 -41 31 -38 31 -39 34 -22 50 23 23 14 60 -23 100 -16 17 -34 41 -41 54 -12 24 -12 24 -26 -15 -8 -21 -14 -54 -14 -72 0 -31 -1 -32 -22 -21 -13 6 -24 13 -26 14 -1 1 2 14 9 28 17 37 3 75 -34 97 -17 11 -36 20 -40 20 -5 0 -7 -25 -5 -55 3 -62 9 -61 -92 -21 -44 17 -56 26 -58 46 -5 34 -20 49 -32 30 -6 -8 -8 -21 -5 -29 4 -9 0 -11 -12 -6 -127 50 -323 65 -478 36z m869 -183 c2 -10 1 -18 -2 -18 -14 0 -28 16 -27 30 1 8 -3 24 -8 35 -6 15 -3 13 12 -5 11 -14 22 -33 25 -42z m174 -61 c2 -10 -6 -21 -22 -28 -14 -7 -23 -16 -20 -20 3 -5 1 -9 -5 -9 -5 0 -10 18 -9 39 0 36 2 39 27 38 15 -2 27 -9 29 -20z m309 -445 c13 10 15 9 11 -7 -3 -14 -11 -19 -26 -18 -17 2 -22 -2 -21 -20 0 -12 3 -16 6 -9 2 6 11 12 19 12 10 0 12 -5 7 -12 -4 -7 -8 -17 -8 -22 0 -5 -6 -11 -12 -13 -7 -3 -13 0 -13 7 0 6 -4 9 -8 6 -5 -3 -8 8 -7 24 2 32 27 70 33 51 3 -9 8 -8 19 1z m-143 -168 c30 -12 16 -22 -34 -26 -52 -3 -58 0 -38 20 13 13 47 16 72 6z m216 -163 c0 -13 -61 -63 -68 -56 -6 6 48 65 60 65 4 0 8 -4 8 -9z m-211 -471 c0 -20 -4 -17 -20 18 -12 25 -17 51 -14 60 6 13 10 9 20 -18 8 -19 14 -46 14 -60z m42 -216 l44 6 -25 -20 c-14 -11 -29 -20 -34 -20 -13 0 -46 31 -46 44 0 6 4 5 9 -3 7 -10 21 -12 52 -7z"/> <path d="M773 2588 c-12 -13 -29 -47 -39 -77 -15 -48 -16 -57 -3 -79 20 -36 35 -37 64 -8 29 29 33 75 12 144 l-13 43 -21 -23z"/> <path d="M577 2519 c-2 -8 -12 -36 -21 -64 -20 -61 -21 -115 -2 -159 19 -44 31 -51 55 -27 51 51 54 108 10 195 -37 72 -37 73 -42 55z m38 -161 c-3 -36 -23 -93 -24 -67 -1 9 2 19 6 23 4 4 6 23 4 42 -1 18 2 34 7 34 5 0 8 -15 7 -32z"/> <path d="M1733 2498 c-38 -43 -36 -46 20 -33 87 21 107 35 71 49 -32 12 -71 6 -91 -16z"/> <path d="M1002 2467 c-34 -19 -9 -44 63 -61 33 -7 69 -17 80 -22 27 -11 -42 69 -73 85 -29 14 -41 14 -70 -2z"/> <path d="M1953 2413 c-23 -26 -43 -50 -43 -53 0 -3 24 -6 54 -8 45 -2 59 2 84 23 16 14 36 25 42 25 7 0 -1 14 -18 30 -44 42 -67 38 -119 -17z m83 2 c-27 -21 -53 -20 -36 0 7 8 22 15 34 15 21 -1 21 -1 2 -15z"/> <path d="M903 2398 c-18 -9 -20 -14 -12 -32 6 -12 20 -28 32 -36 21 -13 148 -42 155 -35 9 9 -48 77 -79 95 -40 22 -63 24 -96 8z m97 -58 c12 -8 10 -10 -10 -11 -36 -2 -54 1 -64 12 -13 12 55 12 74 -1z"/> <path d="M2052 2349 c-18 -17 -32 -35 -32 -39 0 -5 -3 -15 -6 -24 -5 -12 3 -11 48 5 56 21 78 41 78 71 0 30 -51 23 -88 -13z"/> <path d="M2464 2351 c-38 -23 -75 -93 -65 -124 3 -12 14 -33 23 -46 22 -31 62 -22 83 19 17 33 17 170 0 170 -5 0 -24 -9 -41 -19z m28 -70 c-1 -7 -3 -23 -4 -37 -1 -13 -13 -35 -26 -47 l-24 -22 6 35 c3 20 0 37 -6 41 -6 4 -7 12 -3 19 6 9 9 9 15 0 6 -9 10 -6 15 9 7 22 32 24 27 2z"/> <path d="M486 2323 c14 -57 64 -128 64 -91 0 29 -24 83 -43 101 -27 23 -29 22 -21 -10z"/> <path d="M2165 2325 c-21 -20 -25 -33 -25 -88 0 -35 3 -67 7 -71 4 -3 28 15 55 41 56 55 65 100 26 127 -30 21 -35 20 -63 -9z m39 -46 c-8 -9 -13 -22 -11 -30 2 -8 2 -11 0 -6 -3 4 -8 5 -12 3 -15 -9 -9 39 6 56 13 14 18 15 24 6 5 -7 2 -20 -7 -29z"/> <path d="M773 2330 c-28 -11 -30 -41 -5 -63 25 -22 50 -24 32 -2 -19 23 -6 28 34 15 48 -16 54 -30 14 -31 l-33 -1 35 -10 c19 -5 52 -16 73 -23 38 -14 48 -7 22 15 -8 7 -15 18 -15 24 0 7 -15 27 -33 44 -36 35 -87 48 -124 32z"/> <path d="M1328 2289 c-98 -8 -133 -28 -183 -107 -22 -34 -70 -110 -107 -167 l-67 -104 32 -23 c44 -31 146 -97 182 -118 17 -9 55 -31 86 -48 l55 -32 13 36 c7 20 49 96 92 170 43 73 79 139 79 146 0 13 -69 140 -92 169 -8 9 -29 27 -48 40 l-35 24 150 -3 c82 -2 157 -6 165 -9 8 -4 26 -7 40 -7 22 -1 26 -8 36 -61 l12 -60 -5 58 c-6 63 3 71 40 35 12 -13 25 -22 29 -21 4 2 11 -9 14 -23 4 -13 9 -23 11 -20 6 6 53 -48 53 -61 0 -6 9 -18 20 -28 11 -10 20 -23 20 -30 0 -6 11 -17 24 -24 19 -11 29 -10 56 4 32 16 32 16 25 -6 -4 -12 -25 -40 -46 -61 -22 -22 -39 -45 -39 -51 0 -7 9 -1 19 13 17 22 19 22 18 5 -2 -23 -19 -45 -29 -38 -5 2 -9 -2 -9 -9 -1 -7 -3 -20 -4 -28 -2 -25 -18 -54 -42 -78 l-23 -23 -14 33 c-7 18 -16 40 -19 48 -3 8 -3 -3 0 -26 l5 -41 -51 1 c-28 1 -46 3 -41 4 7 3 7 8 0 17 -6 8 -18 11 -26 8 -16 -6 -102 15 -122 30 -40 31 51 41 161 17 58 -12 60 -12 53 -1 -3 4 -40 14 -83 20 -43 7 -85 14 -93 17 -22 6 -23 51 -2 63 15 9 14 10 -7 11 -13 0 -22 3 -19 6 4 3 -2 14 -13 25 -11 11 -17 24 -14 29 4 6 1 10 -4 10 -6 0 -10 3 -9 8 1 4 -3 17 -10 30 -10 18 -10 22 1 22 7 0 18 -5 25 -12 7 -7 12 -9 12 -4 0 8 61 -32 71 -47 3 -5 9 -8 13 -8 19 3 29 0 23 -6 -4 -3 11 -17 33 -30 25 -15 53 -45 71 -76 17 -29 28 -43 24 -32 -4 11 -12 33 -17 48 -12 32 -150 139 -243 188 -33 18 -69 39 -79 48 -23 19 -26 27 52 -133 34 -71 61 -130 60 -131 -2 -2 -29 -16 -61 -32 l-58 -29 84 -28 c73 -23 174 -47 304 -70 l32 -5 92 182 c50 100 98 190 107 200 30 34 4 27 -64 -18 -38 -25 -72 -45 -76 -45 -3 0 -23 26 -43 58 -128 197 -113 189 -345 194 -96 2 -210 0 -252 -3z m-13 -49 c4 -6 10 -8 14 -6 9 6 51 -30 51 -44 0 -5 7 -7 15 -4 14 6 19 -5 16 -32 0 -5 8 -20 18 -31 11 -11 17 -24 14 -27 -4 -3 -1 -6 5 -6 7 0 12 -9 12 -20 0 -11 5 -20 11 -20 6 0 1 -13 -10 -29 -11 -15 -25 -40 -31 -55 -5 -14 -15 -26 -21 -26 -7 0 -9 -3 -6 -7 4 -3 2 -12 -4 -20 -10 -11 -15 -11 -28 -1 -14 11 -14 11 -5 -2 16 -22 24 -60 12 -57 -6 1 -14 -11 -19 -27 -4 -15 -17 -35 -28 -42 -13 -9 -18 -21 -14 -32 3 -9 -12 11 -33 46 -21 34 -44 62 -53 62 -10 0 -8 -7 9 -25 13 -14 19 -25 14 -25 -5 0 -4 -4 1 -8 6 -4 16 -14 23 -23 11 -14 9 -17 -12 -21 -14 -3 -24 -2 -21 2 6 9 -32 40 -50 40 -13 0 -19 10 -17 30 0 3 -11 6 -26 5 -17 0 -27 5 -27 15 0 10 -8 14 -23 12 -14 -2 -21 1 -20 9 2 7 -3 14 -9 15 -7 1 -18 2 -24 3 -5 0 -7 6 -4 11 11 17 131 6 153 -13 28 -25 35 -21 17 11 -16 27 -17 27 -113 25 -69 -2 -92 1 -79 8 9 5 17 16 17 23 0 21 35 47 56 41 14 -4 13 -3 -3 6 -21 11 -21 12 -2 32 10 11 20 19 22 16 2 -2 9 -13 16 -24 11 -18 12 -17 6 10 -4 16 -11 33 -17 36 -5 4 -3 9 7 13 9 3 14 10 11 14 -3 5 4 15 15 22 10 8 19 20 19 27 0 7 5 13 12 13 6 0 8 3 5 7 -9 9 33 53 50 53 7 0 13 5 13 11 0 5 4 8 8 5 4 -2 14 -1 22 5 19 11 27 11 35 -1z"/> <path d="M1180 2073 c0 -5 12 -10 26 -11 31 -2 54 -19 54 -37 0 -7 7 -19 17 -26 9 -8 14 -9 11 -4 -2 6 -11 25 -18 43 -10 22 -21 32 -36 32 -12 0 -29 3 -38 6 -9 3 -16 2 -16 -3z"/> <path d="M1200 1983 c19 -3 40 -9 47 -14 7 -6 13 -6 17 -1 7 12 -29 22 -69 20 -28 -1 -28 -1 5 -5z"/> <path d="M1286 1973 c-3 -3 3 -13 14 -20 11 -8 29 -32 40 -54 21 -40 35 -53 23 -21 -9 24 -50 89 -61 96 -5 3 -12 3 -16 -1z"/> <path d="M400 2194 c0 -36 4 -73 9 -82 11 -20 -22 -68 -39 -57 -17 11 -11 -11 9 -29 27 -24 62 -12 84 30 27 55 22 99 -19 155 -20 27 -38 49 -40 49 -2 0 -4 -30 -4 -66z"/> <path d="M2263 2238 c-32 -35 -43 -63 -43 -107 0 -44 3 -46 59 -35 40 8 65 53 58 101 -11 64 -39 79 -74 41z m35 -36 c9 -6 10 -16 1 -40 -6 -18 -15 -29 -20 -26 -5 3 -9 0 -9 -5 0 -6 -4 -11 -9 -11 -6 0 -9 9 -8 20 1 11 4 20 7 20 3 0 11 10 19 23 13 20 13 21 -2 8 -16 -13 -25 -2 -10 12 8 9 15 9 31 -1z"/> <path d="M663 2240 c-12 -5 -30 -21 -39 -36 -18 -26 -18 -27 10 -51 16 -13 35 -22 43 -19 8 3 21 6 29 6 9 0 12 5 8 11 -3 6 -17 8 -30 5 -27 -7 -33 10 -6 18 9 3 40 8 67 11 28 4 66 12 85 18 l35 10 -80 18 c-92 21 -93 21 -122 9z"/> <path d="M1507 2224 c-3 -4 -20 -9 -38 -13 -25 -5 -29 -9 -18 -18 11 -8 22 -5 49 13 19 13 30 24 24 24 -6 0 -13 -3 -17 -6z"/> <path d="M2544 2163 c-53 -10 -75 -94 -28 -101 16 -2 31 10 58 47 20 28 36 53 36 56 0 6 -33 5 -66 -2z"/> <path d="M1746 2095 c5 -43 24 -108 29 -103 2 2 -6 35 -16 73 -11 40 -16 53 -13 30z"/> <path d="M2355 2095 c24 -19 63 -30 72 -21 11 11 -10 23 -52 30 -38 6 -39 6 -20 -9z"/> <path d="M290 2020 c0 -63 16 -116 42 -138 13 -10 18 -8 31 12 21 32 30 70 23 94 -4 11 -27 37 -51 57 l-45 36 0 -61z"/> <path d="M528 2073 c-37 -9 -16 -24 32 -22 58 3 75 -6 28 -15 -73 -15 -108 -28 -108 -40 0 -8 7 -17 16 -20 22 -9 24 -8 18 8 -4 11 6 17 38 24 54 11 79 4 52 -15 -17 -13 -17 -13 1 -13 10 0 35 18 55 40 20 21 47 44 61 49 18 7 -2 10 -76 9 -55 0 -108 -2 -117 -5z"/> <path d="M2334 2021 c-22 -15 -48 -40 -57 -55 l-17 -26 37 -2 c103 -5 145 4 167 37 16 24 16 26 -8 50 -33 33 -73 32 -122 -4z m74 -17 c-7 -6 -24 -15 -38 -18 l-25 -7 22 19 c24 21 63 28 41 6z"/> <path d="M1836 2011 c-16 -16 -26 -35 -23 -43 3 -8 9 -3 16 15 6 15 15 27 20 27 5 0 11 7 15 15 8 21 4 19 -28 -14z"/> <path d="M398 1927 c-21 -45 -45 -109 -53 -142 -16 -61 -20 -245 -6 -279 4 -10 3 -46 -2 -81 -7 -47 -5 -74 7 -113 8 -29 12 -52 9 -52 -3 0 -36 27 -73 60 -90 80 -108 81 -67 5 25 -45 92 -96 130 -98 19 -2 32 -12 47 -39 20 -36 40 -50 40 -27 0 5 5 7 12 3 6 -4 8 -3 5 3 -4 5 5 20 19 32 l25 22 -3 -41 c-1 -22 -5 -40 -9 -40 -4 0 -10 -12 -13 -26 -6 -24 -8 -25 -19 -9 -13 17 -77 28 -77 13 0 -4 -7 -5 -16 -1 -11 4 -12 8 -4 13 7 4 10 12 6 18 -3 6 -1 14 5 18 8 4 9 3 5 -4 -4 -7 -2 -12 3 -12 15 0 14 15 -1 27 -16 11 -100 44 -104 40 -11 -10 48 -105 74 -119 35 -21 82 -24 82 -6 0 7 8 1 17 -12 9 -14 20 -27 24 -30 3 -3 16 -24 28 -47 12 -24 33 -50 47 -60 14 -9 37 -41 50 -71 13 -30 42 -76 65 -103 l41 -49 -29 0 c-15 0 -37 7 -47 15 -42 32 -151 9 -211 -44 l-33 -29 44 -6 c24 -3 64 -9 88 -12 56 -8 109 10 126 41 8 16 22 25 37 25 23 0 159 -98 149 -108 -3 -2 25 -19 62 -38 56 -27 62 -33 39 -33 -39 -1 -65 -16 -112 -65 l-40 -41 60 -2 c86 -3 133 12 141 43 6 23 10 25 38 20 25 -5 254 -76 264 -82 1 0 -10 -15 -26 -32 -16 -17 -32 -41 -35 -52 -4 -17 -2 -19 21 -14 34 9 39 13 24 23 -16 10 25 33 64 35 16 1 34 5 41 9 21 13 146 -4 168 -23 11 -10 42 -20 69 -23 27 -3 43 -1 36 3 -6 4 -11 11 -9 16 1 5 -9 15 -22 21 -23 12 -21 13 19 13 23 0 41 -3 41 -8 -4 -25 3 -44 14 -39 24 9 82 -9 79 -24 -2 -8 0 -11 3 -7 4 4 16 3 27 -3 11 -6 22 -8 25 -6 7 8 -16 48 -44 78 l-24 26 33 6 c18 3 40 8 49 12 12 5 19 -2 27 -24 6 -17 18 -31 26 -31 9 0 16 -4 16 -9 0 -9 81 -33 88 -26 11 11 -27 81 -52 96 -25 15 -27 19 -13 25 26 10 65 -4 72 -25 7 -22 53 -41 101 -41 18 0 36 -4 39 -10 3 -5 10 -10 15 -10 17 0 -49 96 -76 110 -23 13 -29 12 -56 -3 -33 -19 -48 -21 -48 -9 0 5 30 22 68 37 37 16 91 44 120 62 29 18 57 33 62 33 6 0 10 6 10 13 1 10 77 74 102 85 4 2 16 -6 27 -17 24 -24 46 -25 114 -7 l49 12 -36 32 c-44 39 -90 42 -132 10 -16 -12 -23 -15 -16 -8 6 8 12 20 12 28 0 8 9 25 20 39 30 38 25 75 -15 123 -19 23 -36 47 -36 53 -1 7 -5 -4 -9 -23 -5 -19 -14 -54 -21 -77 -15 -49 -2 -92 31 -100 11 -3 20 -8 20 -12 0 -4 -25 -31 -56 -61 -53 -52 -55 -53 -34 -18 14 23 19 45 15 58 -6 20 -72 90 -84 90 -9 0 -31 -84 -31 -119 0 -21 9 -37 31 -54 l30 -24 -35 -26 -35 -27 6 33 c4 30 1 38 -38 70 l-43 37 -14 -38 c-26 -69 -26 -79 2 -106 l25 -26 -36 -15 c-45 -19 -46 -19 -34 3 14 27 -14 76 -55 95 -19 10 -36 17 -38 17 -1 0 -4 -21 -4 -46 -2 -39 2 -50 29 -75 22 -20 27 -30 17 -34 -7 -2 -38 -13 -68 -24 -119 -42 -201 -55 -345 -55 -83 -1 -163 4 -195 12 -30 7 -66 16 -80 18 -23 5 -22 7 15 19 30 11 42 11 53 2 11 -9 20 -5 43 21 38 43 39 65 2 51 -16 -6 -38 -20 -50 -31 l-23 -21 0 41 c0 23 -4 42 -9 42 -14 0 -30 -56 -24 -81 6 -21 5 -22 -63 -17 -38 3 -90 15 -117 27 l-47 22 6 82 6 82 -21 -25 c-14 -18 -16 -27 -8 -32 11 -7 2 -12 -16 -9 -5 1 -6 -3 -3 -8 4 -5 2 -12 -4 -16 -6 -3 -13 1 -16 9 -9 24 -23 19 -30 -9 -3 -14 -8 -25 -11 -25 -9 0 -93 52 -99 62 -3 5 2 18 11 28 24 27 15 108 -20 185 l-28 59 -19 -54 c-19 -55 -20 -124 -3 -165 4 -11 -15 2 -44 30 -28 27 -51 56 -51 65 0 8 11 25 24 38 25 23 36 67 35 133 -1 20 4 46 10 58 26 48 -37 8 -80 -52 -33 -45 -40 -115 -14 -141 8 -8 15 -21 15 -28 0 -16 -64 72 -80 111 -10 26 -9 33 11 61 30 40 29 86 -5 165 -24 58 -25 58 -32 30 -4 -17 -16 -48 -26 -69 -14 -27 -18 -50 -15 -73 8 -45 -12 -31 -38 27 -18 40 -18 41 3 61 12 11 23 25 24 32 4 28 3 227 -2 227 -7 0 -69 -94 -91 -137 l-17 -33 -20 53 c-36 91 -36 96 -9 103 47 11 71 49 77 120 3 35 3 64 0 64 -3 0 -15 -7 -27 -15 -18 -13 -20 -20 -13 -46 10 -34 5 -53 -11 -44 -5 4 -9 1 -9 -4 0 -6 6 -11 13 -11 6 -1 1 -7 -12 -14 -57 -32 -68 19 -20 96 29 49 35 74 9 43 -7 -8 -15 -15 -19 -15 -10 0 -3 108 9 146 11 31 15 34 50 34 32 0 46 7 75 37 31 32 43 53 31 53 -8 0 -79 -42 -105 -62 -30 -23 -40 -23 -34 0 2 9 29 35 59 57 35 26 56 50 60 68 4 15 10 27 13 27 11 0 84 100 78 106 -3 3 -14 1 -25 -5 -12 -6 -38 -11 -59 -11 -39 0 -83 -22 -83 -42 0 -7 -10 -22 -22 -35 -31 -33 -14 -40 22 -9 17 14 36 26 41 26 6 0 8 4 4 9 -3 6 5 15 17 22 21 11 22 11 9 -5 -12 -14 -12 -16 3 -10 9 3 16 2 16 -2 -1 -20 -30 -46 -62 -54 -51 -15 -78 -44 -78 -88 0 -20 -11 -68 -25 -107 l-25 -70 6 70 c10 124 44 236 94 310 23 35 25 45 8 45 -7 -1 -30 -38 -50 -83z m197 -923 c-4 -37 -25 -56 -25 -22 0 34 10 59 20 53 5 -3 7 -17 5 -31z m1737 -197 c-4 -24 -7 -26 -18 -15 -17 17 -7 72 10 56 7 -6 10 -25 8 -41z m-1500 -91 c2 -43 -16 -69 -19 -28 -3 31 6 77 13 70 2 -3 5 -22 6 -42z m1358 7 c0 -15 2 -16 10 -3 8 12 10 12 15 -2 9 -23 -20 -65 -31 -46 -12 18 -14 68 -3 68 5 0 9 -8 9 -17z m-1610 -48 c-6 -7 -19 -12 -28 -10 -9 2 -30 4 -46 4 -43 1 -20 19 29 23 49 4 59 0 45 -17z m1520 -73 c0 -7 -5 -10 -11 -6 -7 4 -10 1 -7 -7 3 -8 11 -14 18 -14 7 0 15 -6 18 -13 5 -17 -37 -10 -49 9 -15 24 -10 45 11 45 11 0 20 -6 20 -14z m-1114 -51 c-4 -5 -1 -11 6 -13 15 -5 1 -28 -18 -28 -14 0 -20 31 -7 43 10 10 25 8 19 -2z m-46 -50 c0 -10 -69 -25 -78 -17 -3 3 5 6 17 6 12 0 19 4 16 10 -4 6 5 10 19 10 14 0 26 -4 26 -9z m-10 -35 c-8 -8 -26 -17 -40 -21 l-25 -7 24 21 c28 24 66 31 41 7z m993 -106 c4 -16 2 -18 -11 -10 -45 25 -48 30 -21 30 18 0 28 -6 32 -20z"/> <path d="M230 1908 c0 -21 43 -85 73 -108 l27 -21 0 33 c0 40 -12 57 -62 87 -27 16 -38 19 -38 9z"/> <path d="M2404 1898 c-35 -28 -64 -56 -64 -63 0 -3 16 -5 36 -5 19 0 33 3 31 8 -3 4 22 8 54 9 60 2 70 -9 25 -28 -19 -8 -18 -8 8 -6 17 1 35 11 43 24 14 21 13 25 -15 53 -37 37 -77 39 -118 8z m104 -25 c2 -9 -10 -13 -42 -13 -42 0 -55 7 -40 23 11 11 77 2 82 -10z"/> <path d="M2683 1780 c-55 -33 -59 -103 -7 -108 25 -2 37 4 63 33 17 20 31 41 31 47 0 6 7 20 17 30 15 17 14 18 -28 18 -26 0 -57 -8 -76 -20z m42 -53 c-17 -26 -44 -42 -54 -31 -3 3 9 19 27 36 39 34 51 31 27 -5z"/> <path d="M2090 1743 c-19 -13 -92 -61 -162 -105 -71 -44 -128 -83 -128 -85 0 -7 60 -114 109 -193 l47 -75 114 -3 c137 -3 171 10 207 78 15 29 23 36 23 23 0 -32 -42 -86 -81 -105 -41 -21 -89 -24 -331 -20 l-178 2 0 80 c0 44 -3 80 -7 80 -5 0 -25 -28 -45 -63 -21 -34 -74 -118 -117 -187 l-80 -125 28 -30 c51 -54 164 -218 192 -280 l28 -60 1 95 0 95 123 1 c67 0 141 6 164 13 50 14 93 61 143 157 19 38 55 104 80 148 111 196 115 246 32 373 -28 43 -68 108 -89 144 l-38 67 -35 -25z m6 -54 l-16 -33 24 23 c23 22 24 22 30 4 4 -11 15 -29 26 -41 l20 -21 -30 -16 c-17 -9 -28 -20 -25 -26 4 -5 13 -3 21 6 9 8 19 15 24 15 12 0 41 -50 35 -60 -3 -6 0 -10 8 -10 12 0 23 -15 30 -40 0 -3 6 -15 13 -28 15 -30 7 -63 -13 -55 -13 5 -13 2 -4 -15 9 -18 8 -25 -9 -42 -11 -11 -26 -20 -34 -20 -8 0 -16 -5 -18 -11 -2 -6 -31 -11 -73 -10 -44 0 -72 -4 -77 -12 -5 -7 -8 -3 -8 13 0 14 -4 21 -8 15 -13 -18 -41 -14 -37 6 3 13 -2 19 -15 19 -12 0 -17 5 -14 14 3 7 -2 16 -10 19 -9 4 -16 12 -16 18 0 8 6 7 18 -3 27 -23 94 -59 90 -49 -6 17 -112 91 -131 91 -10 0 -16 4 -13 8 2 4 1 14 -4 22 -5 9 -4 20 3 29 10 12 9 14 -7 8 -14 -6 -17 -4 -12 9 4 12 2 15 -9 10 -17 -6 -20 5 -5 20 6 6 28 8 54 4 24 -3 70 -3 102 1 32 4 69 8 82 8 12 1 22 4 22 9 0 4 -55 6 -122 5 -120 -3 -122 -2 -90 14 17 9 32 20 32 25 0 4 5 8 10 8 18 0 152 84 157 98 3 7 8 11 10 8 3 -3 -2 -19 -11 -37z m-406 -383 c0 -3 -7 -12 -16 -20 -14 -15 -14 -16 0 -16 16 0 19 -9 17 -46 -1 -13 5 -24 16 -28 14 -6 16 -5 6 5 -7 7 -13 16 -13 20 0 6 460 6 492 0 10 -2 -2 -30 -33 -76 -14 -22 -30 -50 -33 -62 -4 -13 -11 -23 -16 -23 -5 0 -12 -9 -15 -20 -4 -11 -10 -18 -15 -15 -4 3 -6 -3 -3 -14 5 -19 -20 -48 -74 -86 -32 -23 -51 -27 -59 -14 -3 6 -12 2 -20 -8 -7 -10 -14 -13 -14 -8 0 14 -152 11 -187 -4 -20 -8 -29 -20 -31 -38 -3 -37 -12 -42 -13 -7 0 24 -2 26 -8 9 -8 -19 -8 -19 -20 3 -10 19 -9 22 9 22 16 0 20 6 19 28 -2 23 -2 24 -6 5 -3 -17 -11 -23 -29 -23 -14 0 -22 4 -19 10 3 6 2 10 -4 10 -5 0 -20 18 -32 40 -13 22 -29 40 -37 40 -10 0 -13 8 -10 24 4 19 1 22 -14 18 -19 -5 -25 12 -8 23 6 4 8 10 5 14 -2 4 7 23 21 42 14 19 30 44 34 56 9 21 11 22 46 7 20 -8 41 -13 47 -11 7 3 -1 8 -18 12 -16 5 -38 13 -48 20 -15 11 -16 14 -2 25 8 7 15 18 15 24 0 14 47 66 60 66 6 0 10 -2 10 -4z"/> <path d="M2031 1620 c-61 -40 -64 -46 -9 -19 26 13 49 30 52 37 7 15 10 16 -43 -18z"/> <path d="M2025 1449 c-3 -4 9 -9 27 -11 21 -2 33 -8 33 -18 0 -8 -6 -14 -13 -12 -8 1 -11 -2 -7 -8 5 -8 11 -8 20 0 8 6 26 15 42 20 l28 8 -32 1 c-17 1 -34 5 -37 10 -8 12 -55 20 -61 10z"/> <path d="M1629 1082 c12 -9 10 -12 -12 -17 -15 -4 -27 -11 -27 -16 0 -5 11 -4 24 3 30 13 60 3 52 -17 -3 -8 -1 -17 4 -20 6 -4 10 9 10 29 0 24 -5 36 -14 36 -8 0 -23 3 -33 6 -14 5 -15 4 -4 -4z"/> <path d="M885 1749 c-88 -4 -185 -7 -215 -8 l-55 -2 75 -35 c41 -20 83 -36 93 -37 9 -1 16 -4 15 -7 -2 -3 -23 -37 -46 -77 -57 -93 -63 -140 -29 -192 38 -56 95 -81 190 -81 l77 0 46 70 c25 39 46 79 47 89 1 18 3 18 32 4 16 -9 54 -31 84 -50 29 -19 55 -32 57 -30 2 2 -32 71 -76 153 -44 82 -88 163 -97 180 -8 17 -21 30 -27 30 -6 -1 -83 -4 -171 -7z m155 -34 c27 -9 65 -86 48 -97 -9 -5 -8 -8 5 -8 9 0 17 -4 17 -9 0 -4 12 -25 26 -46 14 -21 23 -43 20 -51 -3 -7 0 -15 7 -18 7 -3 -1 -2 -18 1 -16 3 -41 14 -55 23 -14 9 -82 46 -152 81 -79 39 -130 70 -134 82 -3 10 -15 22 -27 27 -17 7 -9 9 33 10 68 2 99 5 105 11 6 7 100 2 125 -6z m-127 -129 l69 -34 -24 -16 c-12 -9 -53 -26 -91 -37 -37 -11 -65 -24 -62 -30 4 -5 14 -5 28 2 11 7 28 13 37 13 18 2 93 38 101 49 8 12 60 -3 82 -23 16 -16 16 -19 3 -33 -8 -8 -12 -18 -8 -22 4 -3 -1 -13 -12 -20 -10 -8 -15 -19 -10 -26 4 -8 3 -10 -4 -5 -7 4 -12 1 -12 -8 0 -8 -11 -23 -25 -34 -13 -11 -23 -21 -20 -23 2 -2 -18 -4 -45 -4 -27 0 -51 3 -55 7 -4 4 -13 4 -20 2 -7 -3 -16 -1 -20 5 -3 6 -15 11 -26 11 -10 0 -19 6 -19 14 0 8 -6 16 -14 19 -7 3 -16 15 -19 26 -3 12 -2 19 1 17 4 -2 16 5 27 16 20 19 20 19 -9 8 -16 -6 -30 -9 -32 -8 -1 2 3 17 10 33 8 17 21 47 30 68 9 20 22 37 28 37 5 0 8 7 4 15 -9 25 33 18 107 -19z"/> <path d="M203 1628 c3 -9 11 -33 17 -54 9 -28 24 -47 54 -66 48 -31 56 -22 30 34 -17 38 -115 121 -101 86z"/> <path d="M217 1485 c-8 -46 9 -95 34 -96 10 -1 27 -2 37 -3 12 -1 18 8 20 33 3 34 -9 51 -37 51 -11 0 -11 -4 2 -18 20 -22 22 -33 5 -29 -18 3 -34 28 -36 56 -2 41 -19 45 -25 6z"/> <path d="M710 1375 c0 -15 193 -358 226 -403 41 -54 74 -61 272 -62 122 -1 177 2 176 9 -1 6 -2 94 -2 195 l-2 184 -272 -5 c-264 -6 -274 -5 -315 15 -22 12 -51 33 -62 48 -12 15 -21 23 -21 19z m230 -115 c0 -3 49 -4 110 -4 82 1 113 -2 121 -12 10 -12 17 -11 46 7 21 13 40 18 51 13 9 -4 23 -6 29 -5 8 1 10 -5 6 -16 -6 -16 -4 -16 17 2 20 17 23 18 17 3 -4 -10 -2 -18 3 -18 6 0 10 -11 10 -25 0 -17 -6 -25 -17 -26 -17 -1 -17 -2 0 -6 19 -5 24 -33 5 -33 -10 0 -10 -2 -1 -8 13 -8 16 -141 3 -157 -5 -5 -8 -14 -9 -20 0 -14 -31 -19 -31 -5 0 9 -4 9 -12 3 -20 -15 -141 -14 -135 1 4 9 -2 11 -19 8 -13 -2 -22 -8 -19 -12 3 -4 -1 -10 -9 -13 -8 -3 -17 1 -20 9 -3 9 -1 12 4 9 6 -3 10 -1 10 4 0 14 -17 14 -25 0 -14 -21 -115 7 -115 32 0 6 -9 23 -19 38 -11 15 -21 34 -23 42 -2 8 -10 19 -18 26 -8 7 -11 13 -7 13 5 0 -1 12 -12 26 -12 15 -21 34 -21 43 0 9 -8 21 -19 28 -12 8 -17 20 -14 35 4 21 10 23 59 23 30 0 54 -2 54 -5z"/> <path d="M2752 1305 c-74 -39 -91 -58 -92 -101 0 -28 3 -31 35 -32 41 -2 72 23 80 65 3 16 15 45 26 66 11 20 18 37 17 37 -2 0 -32 -16 -66 -35z m-8 -75 c-16 -26 -44 -48 -44 -34 0 12 42 64 51 64 6 0 2 -13 -7 -30z"/> <path d="M2438 1084 c13 -35 23 -49 36 -47 12 1 16 -4 11 -15 -5 -14 9 -31 28 -32 4 0 7 15 7 33 0 35 -18 57 -73 92 l-28 18 19 -49z"/> <path d="M2627 1119 c-28 -17 -50 -68 -36 -85 20 -24 74 -17 105 14 32 31 64 70 64 77 0 9 -115 4 -133 -6z m54 -49 c-13 -11 -29 -20 -36 -20 -7 0 -21 -3 -31 -7 -15 -6 -15 -4 2 14 10 11 21 19 24 17 3 -1 12 1 20 7 8 5 22 9 30 9 10 -1 8 -7 -9 -20z"/> <path d="M327 1031 l-39 -6 24 -21 c51 -46 106 -73 77 -38 -12 14 -9 16 26 13 24 -2 43 -10 46 -19 5 -11 9 -7 14 13 5 20 3 33 -6 42 -17 17 -91 25 -142 16z"/> <path d="M414 910 c-23 -12 -49 -29 -59 -40 -16 -18 -16 -18 4 -13 12 3 31 -1 44 -10 56 -36 131 -26 156 22 26 48 -76 76 -145 41z m96 -35 c0 -21 -39 -40 -54 -25 -8 8 -6 15 8 26 25 18 46 18 46 -1z"/> <path d="M2446 821 c-17 -19 -17 -20 9 -37 24 -15 33 -16 73 -5 59 16 62 19 33 42 -31 25 -92 25 -115 0z"/> <path d="M922 735 c-26 -53 -28 -102 -6 -133 17 -25 34 -29 34 -9 0 8 9 22 20 32 26 23 26 65 0 115 -11 22 -22 40 -23 40 -2 0 -13 -20 -25 -45z"/> <path d="M1162 654 c-46 -55 -68 -118 -54 -150 15 -31 37 -40 68 -25 38 17 46 51 31 138 l-13 76 -32 -39z m11 -81 c-9 -3 -10 -10 -4 -22 7 -12 5 -20 -9 -28 -15 -10 -17 -9 -13 10 9 41 12 47 25 46 10 0 10 -2 1 -6z"/> <path d="M658 631 c-44 -14 -81 -41 -121 -88 -40 -48 -43 -62 -9 -44 12 6 49 11 84 11 80 0 134 15 164 45 29 30 29 36 0 57 -29 21 -83 29 -118 19z m71 -41 c-8 -5 -40 -12 -70 -15 -51 -6 -53 -5 -29 9 14 8 45 15 70 15 32 0 40 -2 29 -9z m31 -30 c0 -18 -37 -29 -104 -32 -72 -3 -85 5 -33 21 64 20 137 26 137 11z"/> <path d="M2252 610 c-17 -14 -22 -25 -17 -40 11 -33 40 -43 95 -31 27 6 57 8 66 4 25 -9 2 28 -37 61 -36 31 -75 33 -107 6z m62 -16 c24 -9 19 -26 -5 -19 -15 5 -19 4 -15 -4 4 -6 3 -11 -2 -11 -14 0 -21 11 -15 26 6 15 13 17 37 8z"/> <path d="M1802 541 c-39 -68 -19 -128 28 -86 23 21 26 68 7 103 -13 22 -13 22 -35 -17z"/> <path d="M1660 532 c0 -18 69 -72 85 -66 19 8 19 17 -2 43 -19 23 -83 41 -83 23z"/> <path d="M2123 533 c-20 -7 -15 -48 7 -68 15 -14 31 -17 70 -13 28 3 54 8 58 12 4 4 -10 23 -30 42 -36 32 -71 41 -105 27z"/> <path d="M1428 483 c-10 -2 -18 -11 -18 -18 0 -18 53 -60 58 -46 2 7 11 6 25 -4 28 -20 37 -19 37 3 0 19 -34 62 -50 62 -4 0 -14 2 -22 4 -7 2 -21 2 -30 -1z"/> <path d="M1054 430 c-21 -8 -94 -87 -94 -101 0 -8 42 1 50 11 18 22 73 50 101 50 l33 0 -21 -19 c-12 -11 -36 -24 -54 -30 l-34 -9 42 -1 c44 -1 76 21 89 63 12 37 -55 59 -112 36z"/> </g> </svg> 